solid OpenSCAD_Model
  facet normal 0 -1 0
    outer loop
      vertex 0 5 12.7
      vertex -5 5 0
      vertex 0 5 0
    endloop
  endfacet
  facet normal 0 0 -1
    outer loop
      vertex -5 5 0
      vertex 0 47.625 0
      vertex 0 5 0
    endloop
  endfacet
  facet normal 1 0 0
    outer loop
      vertex 0 47.625 0
      vertex 0 5 12.7
      vertex 0 5 0
    endloop
  endfacet
  facet normal 0 -1 0
    outer loop
      vertex -5 5 17.7
      vertex -5 5 0
      vertex 0 5 12.7
    endloop
  endfacet
  facet normal -1 0 0
    outer loop
      vertex -5 5 0
      vertex -5 5 17.7
      vertex -5 68.5 17.7
    endloop
  endfacet
  facet normal 0 -1 0
    outer loop
      vertex -5 5 17.7
      vertex 0 5 12.7
      vertex 25.4 5 12.7
    endloop
  endfacet
  facet normal 0 0 1
    outer loop
      vertex -5 68.5 17.7
      vertex -5 5 17.7
      vertex 30.4 5 17.7
    endloop
  endfacet
  facet normal 0 0 -1
    outer loop
      vertex -5 5 0
      vertex -5 68.5 0
      vertex 0 47.625 0
    endloop
  endfacet
  facet normal -1 0 0
    outer loop
      vertex -5 5 0
      vertex -5 68.5 17.7
      vertex -5 68.5 0
    endloop
  endfacet
  facet normal 1 0 0
    outer loop
      vertex 0 58.5 12.7
      vertex 0 5 12.7
      vertex 0 47.625 0
    endloop
  endfacet
  facet normal 1 0 0
    outer loop
      vertex 0 58.5 12.7
      vertex 0 47.625 0
      vertex 0 58.5 8.700000002041577
    endloop
  endfacet
  facet normal 4.081586561727352e-16 -0.6246950476438106 0.7808688093715214
    outer loop
      vertex 0 47.625 0
      vertex 4.9999998814593125 63.49999999627471 12.7
      vertex 0 58.5 8.700000002041577
    endloop
  endfacet
  facet normal 0 0 -1
    outer loop
      vertex -5 68.5 0
      vertex 30.4 68.5 0
      vertex 0 47.625 0
    endloop
  endfacet
  facet normal 0 1 0
    outer loop
      vertex 30.4 68.5 0
      vertex -5 68.5 0
      vertex -5 68.5 17.7
    endloop
  endfacet
  facet normal 0 -0.6246950476438105 0.7808688093715214
    outer loop
      vertex 0 47.625 0
      vertex 20.400000118540685 63.49999999627471 12.7
      vertex 4.9999998814593125 63.49999999627471 12.7
    endloop
  endfacet
  facet normal 0.9995065603657316 -0.03141075907812741 0
    outer loop
      vertex 0.009866357858641983 58.81395259764657 12.7
      vertex 0 58.5 8.700000002041577
      vertex 0.009866357858641983 58.81395259764657 8.95116208021777
    endloop
  endfacet
  facet normal 0.9955619646030799 -0.09410831331851537 0
    outer loop
      vertex 0.03942649342761051 59.12666616782152 12.7
      vertex 0.009866357858641983 58.81395259764657 8.95116208021777
      vertex 0.03942649342761051 59.12666616782152 9.201332936416437
    endloop
  endfacet
  facet normal 0.9876883405951374 -0.1564344650402323 0
    outer loop
      vertex 0.03942649342761051 59.12666616782152 12.7
      vertex 0.03942649342761051 59.12666616782152 9.201332936416437
      vertex 0.08856374635655673 59.43690657292862 9.449525260560359
    endloop
  endfacet
  facet normal 0.9759167619387479 -0.2181432413965407 0
    outer loop
      vertex 0.15708419435684462 59.743449435824274 12.7
      vertex 0.08856374635655673 59.43690657292862 9.449525260560359
      vertex 0.15708419435684462 59.743449435824274 9.69475955093443
    endloop
  endfacet
  facet normal 0.9602936856769425 -0.27899110603923133 0
    outer loop
      vertex 0.24471741852423268 60.045084971874736 12.7
      vertex 0.15708419435684462 59.743449435824274 9.69475955093443
      vertex 0.24471741852423268 60.045084971874736 9.936067979831424
    endloop
  endfacet
  facet normal 0.9408807689542266 -0.33873792024528837 0
    outer loop
      vertex 0.24471741852423268 60.045084971874736 12.7
      vertex 0.24471741852423268 60.045084971874736 9.936067979831424
      vertex 0.3511175705587428 60.34062276342339 10.17249821312583
    endloop
  endfacet
  facet normal -1.2544236246900464e-15 -0.6246950476438096 0.780868809371522
    outer loop
      vertex 0 58.5 8.700000002041577
      vertex 4.9999998814593125 63.49999999627471 12.7
      vertex 0.009866357858641983 58.81395259764657 8.95116208021777
    endloop
  endfacet
  facet normal 1.9509682867417916e-15 -0.6246950476438117 0.7808688093715203
    outer loop
      vertex 0.009866357858641983 58.81395259764657 8.95116208021777
      vertex 4.9999998814593125 63.49999999627471 12.7
      vertex 0.03942649342761051 59.12666616782152 9.201332936416437
    endloop
  endfacet
  facet normal 0.9995065603657315 -0.03141075907812741 0
    outer loop
      vertex 0 58.5 8.700000002041577
      vertex 0.009866357858641983 58.81395259764657 12.7
      vertex 0 58.5 12.7
    endloop
  endfacet
  facet normal 0.9955619646030799 -0.09410831331851535 0
    outer loop
      vertex 0.009866357858641983 58.81395259764657 8.95116208021777
      vertex 0.03942649342761051 59.12666616782152 12.7
      vertex 0.009866357858641983 58.81395259764657 12.7
    endloop
  endfacet
  facet normal 0.9177546256839814 -0.39714789063478023 0
    outer loop
      vertex 0.47586473766990167 60.62889645782536 12.7
      vertex 0.3511175705587428 60.34062276342339 10.17249821312583
      vertex 0.47586473766990167 60.62889645782536 10.403117168701526
    endloop
  endfacet
  facet normal 0.9876883405951374 -0.1564344650402323 0
    outer loop
      vertex 0.03942649342761051 59.12666616782152 12.7
      vertex 0.08856374635655673 59.43690657292862 9.449525260560359
      vertex 0.08856374635655673 59.43690657292862 12.7
    endloop
  endfacet
  facet normal 0.9759167619387477 -0.21814324139654065 0
    outer loop
      vertex 0.08856374635655673 59.43690657292862 9.449525260560359
      vertex 0.15708419435684462 59.743449435824274 12.7
      vertex 0.08856374635655673 59.43690657292862 12.7
    endloop
  endfacet
  facet normal 0.9602936856769424 -0.2789911060392313 0
    outer loop
      vertex 0.15708419435684462 59.743449435824274 9.69475955093443
      vertex 0.24471741852423268 60.045084971874736 12.7
      vertex 0.15708419435684462 59.743449435824274 12.7
    endloop
  endfacet
  facet normal 0.9408807689542266 -0.33873792024528837 0
    outer loop
      vertex 0.24471741852423268 60.045084971874736 12.7
      vertex 0.3511175705587428 60.34062276342339 10.17249821312583
      vertex 0.3511175705587428 60.34062276342339 12.7
    endloop
  endfacet
  facet normal 0.9177546256839813 -0.3971478906347801 0
    outer loop
      vertex 0.3511175705587428 60.34062276342339 10.17249821312583
      vertex 0.47586473766990167 60.62889645782536 12.7
      vertex 0.3511175705587428 60.34062276342339 12.7
    endloop
  endfacet
  facet normal -3.5356472290546203e-15 -0.624695047643808 0.7808688093715234
    outer loop
      vertex 0.03942649342761051 59.12666616782152 9.201332936416437
      vertex 4.9999998814593125 63.49999999627471 12.7
      vertex 0.08856374635655673 59.43690657292862 9.449525260560359
    endloop
  endfacet
  facet normal 1.5542094447329378e-15 -0.6246950476438117 0.7808688093715204
    outer loop
      vertex 0.08856374635655673 59.43690657292862 9.449525260560359
      vertex 4.9999998814593125 63.49999999627471 12.7
      vertex 0.15708419435684462 59.743449435824274 9.69475955093443
    endloop
  endfacet
  facet normal -3.677374161054889e-15 -0.6246950476438076 0.7808688093715236
    outer loop
      vertex 0.15708419435684462 59.743449435824274 9.69475955093443
      vertex 4.9999998814593125 63.49999999627471 12.7
      vertex 0.24471741852423268 60.045084971874736 9.936067979831424
    endloop
  endfacet
  facet normal 4.427579117268502e-15 -0.6246950476438144 0.7808688093715183
    outer loop
      vertex 0.24471741852423268 60.045084971874736 9.936067979831424
      vertex 4.9999998814593125 63.49999999627471 12.7
      vertex 0.3511175705587428 60.34062276342339 10.17249821312583
    endloop
  endfacet
  facet normal 0.8910065241883658 -0.4539904997395507 0
    outer loop
      vertex 0.47586473766990167 60.62889645782536 12.7
      vertex 0.47586473766990167 60.62889645782536 10.403117168701526
      vertex 0.6184665997806826 60.908768370508575 10.627014698900638
    endloop
  endfacet
  facet normal 0.8607420270039426 -0.5090414157503729 0
    outer loop
      vertex 0.6184665997806826 60.908768370508575 12.7
      vertex 0.6184665997806826 60.908768370508575 10.627014698900638
      vertex 0.7783603724899253 61.17913397489498 10.843307182460517
    endloop
  endfacet
  facet normal 0.8270805742745628 -0.5620833778521293 0
    outer loop
      vertex 0.9549150281252627 61.43892626146236 12.7
      vertex 0.7783603724899253 61.17913397489498 10.843307182460517
      vertex 0.9549150281252627 61.43892626146236 11.051141011763194
    endloop
  endfacet
  facet normal 0.7901550123756972 -0.6129070536529678 0
    outer loop
      vertex 0.9549150281252627 61.43892626146236 12.7
      vertex 0.9549150281252627 61.43892626146236 11.051141011763194
      vertex 1.147433786121053 61.68711994874345 11.249695961634659
    endloop
  endfacet
  facet normal 0.8910065241883659 -0.45399049973955075 0
    outer loop
      vertex 0.6184665997806826 60.908768370508575 10.627014698900638
      vertex 0.6184665997806826 60.908768370508575 12.7
      vertex 0.47586473766990167 60.62889645782536 12.7
    endloop
  endfacet
  facet normal 0.8607420270039428 -0.5090414157503729 0
    outer loop
      vertex 0.6184665997806826 60.908768370508575 12.7
      vertex 0.7783603724899253 61.17913397489498 10.843307182460517
      vertex 0.7783603724899253 61.17913397489498 12.7
    endloop
  endfacet
  facet normal 0.8270805742745627 -0.5620833778521293 0
    outer loop
      vertex 0.7783603724899253 61.17913397489498 10.843307182460517
      vertex 0.9549150281252627 61.43892626146236 12.7
      vertex 0.7783603724899253 61.17913397489498 12.7
    endloop
  endfacet
  facet normal 0.750111069630451 -0.6613118653236615 0
    outer loop
      vertex 1.3551568628929416 61.92273552964344 12.7
      vertex 1.147433786121053 61.68711994874345 11.249695961634659
      vertex 1.3551568628929416 61.92273552964344 11.438188426398883
    endloop
  endfacet
  facet normal 0.7071067811865538 -0.7071067811865412 0
    outer loop
      vertex 1.3551568628929416 61.92273552964344 12.7
      vertex 1.3551568628929416 61.92273552964344 11.438188426398883
      vertex 1.5772644703565577 62.14484313710706 11.615874512411475
    endloop
  endfacet
  facet normal 0.7901550123756971 -0.6129070536529678 0
    outer loop
      vertex 0.9549150281252627 61.43892626146236 12.7
      vertex 1.147433786121053 61.68711994874345 11.249695961634659
      vertex 1.147433786121053 61.68711994874345 12.7
    endloop
  endfacet
  facet normal 0.750111069630451 -0.6613118653236615 0
    outer loop
      vertex 1.147433786121053 61.68711994874345 11.249695961634659
      vertex 1.3551568628929416 61.92273552964344 12.7
      vertex 1.147433786121053 61.68711994874345 12.7
    endloop
  endfacet
  facet normal 0.7071067811865539 -0.7071067811865411 0
    outer loop
      vertex 1.3551568628929416 61.92273552964344 12.7
      vertex 1.5772644703565577 62.14484313710706 11.615874512411475
      vertex 1.5772644703565577 62.14484313710706 12.7
    endloop
  endfacet
  facet normal -3.1157574107268206e-15 -0.6246950476438077 0.7808688093715236
    outer loop
      vertex 0.3511175705587428 60.34062276342339 10.17249821312583
      vertex 4.9999998814593125 63.49999999627471 12.7
      vertex 0.47586473766990167 60.62889645782536 10.403117168701526
    endloop
  endfacet
  facet normal 3.7439847319980495e-15 -0.6246950476438142 0.7808688093715185
    outer loop
      vertex 0.47586473766990167 60.62889645782536 10.403117168701526
      vertex 4.9999998814593125 63.49999999627471 12.7
      vertex 0.6184665997806826 60.908768370508575 10.627014698900638
    endloop
  endfacet
  facet normal -3.0387537114439078e-15 -0.6246950476438071 0.7808688093715241
    outer loop
      vertex 0.6184665997806826 60.908768370508575 10.627014698900638
      vertex 4.9999998814593125 63.49999999627471 12.7
      vertex 0.7783603724899253 61.17913397489498 10.843307182460517
    endloop
  endfacet
  facet normal 4.4167837574768666e-16 -0.6246950476438109 0.780868809371521
    outer loop
      vertex 0.7783603724899253 61.17913397489498 10.843307182460517
      vertex 4.9999998814593125 63.49999999627471 12.7
      vertex 0.9549150281252627 61.43892626146236 11.051141011763194
    endloop
  endfacet
  facet normal 0.6613118653236459 -0.7501110696304647 0
    outer loop
      vertex 1.5772644703565577 62.14484313710706 12.7
      vertex 1.5772644703565577 62.14484313710706 11.615874512411475
      vertex 1.8128800512565517 62.352566213878944 11.782052973867978
    endloop
  endfacet
  facet normal 0.6129070536529795 -0.7901550123756879 0
    outer loop
      vertex 2.061073738537634 62.545084971874736 12.7
      vertex 1.8128800512565517 62.352566213878944 11.782052973867978
      vertex 2.061073738537634 62.545084971874736 11.936067980300754
    endloop
  endfacet
  facet normal 2.28453900455681e-15 -0.6246950476438132 0.7808688093715191
    outer loop
      vertex 0.9549150281252627 61.43892626146236 11.051141011763194
      vertex 4.9999998814593125 63.49999999627471 12.7
      vertex 1.147433786121053 61.68711994874345 11.249695961634659
    endloop
  endfacet
  facet normal 1.0609293340783418e-15 -0.6246950476438117 0.7808688093715204
    outer loop
      vertex 1.147433786121053 61.68711994874345 11.249695961634659
      vertex 4.9999998814593125 63.49999999627471 12.7
      vertex 1.3551568628929416 61.92273552964344 11.438188426398883
    endloop
  endfacet
  facet normal -7.551319481149268e-16 -0.6246950476438089 0.7808688093715226
    outer loop
      vertex 1.3551568628929416 61.92273552964344 11.438188426398883
      vertex 4.9999998814593125 63.49999999627471 12.7
      vertex 1.5772644703565577 62.14484313710706 11.615874512411475
    endloop
  endfacet
  facet normal 5.5333903430270235e-17 -0.6246950476438103 0.7808688093715215
    outer loop
      vertex 1.5772644703565577 62.14484313710706 11.615874512411475
      vertex 4.9999998814593125 63.49999999627471 12.7
      vertex 1.8128800512565517 62.352566213878944 11.782052973867978
    endloop
  endfacet
  facet normal 1.977538673374349e-16 -0.6246950476438106 0.7808688093715214
    outer loop
      vertex 1.8128800512565517 62.352566213878944 11.782052973867978
      vertex 4.9999998814593125 63.49999999627471 12.7
      vertex 2.061073738537634 62.545084971874736 11.936067980300754
    endloop
  endfacet
  facet normal 0.6613118653236459 -0.7501110696304648 0
    outer loop
      vertex 1.5772644703565577 62.14484313710706 12.7
      vertex 1.8128800512565517 62.352566213878944 11.782052973867978
      vertex 1.8128800512565517 62.352566213878944 12.7
    endloop
  endfacet
  facet normal 0.6129070536529795 -0.7901550123756879 0
    outer loop
      vertex 1.8128800512565517 62.352566213878944 11.782052973867978
      vertex 2.061073738537634 62.545084971874736 12.7
      vertex 1.8128800512565517 62.352566213878944 12.7
    endloop
  endfacet
  facet normal 0.5620833778521254 -0.8270805742745654 0
    outer loop
      vertex 2.061073738537634 62.545084971874736 11.936067980300754
      vertex 2.3208660251050164 62.72163962751007 12.7
      vertex 2.061073738537634 62.545084971874736 12.7
    endloop
  endfacet
  facet normal 0.5620833778521254 -0.8270805742745655 0
    outer loop
      vertex 2.3208660251050164 62.72163962751007 12.7
      vertex 2.061073738537634 62.545084971874736 11.936067980300754
      vertex 2.3208660251050164 62.72163962751007 12.077311704842167
    endloop
  endfacet
  facet normal 0.5090414157503788 -0.8607420270039392 0
    outer loop
      vertex 2.3208660251050164 62.72163962751007 12.7
      vertex 2.3208660251050164 62.72163962751007 12.077311704842167
      vertex 2.591231629491424 62.88153340021932 12.205226723039582
    endloop
  endfacet
  facet normal 0.4539904997395485 -0.891006524188367 0
    outer loop
      vertex 2.591231629491424 62.88153340021932 12.7
      vertex 2.591231629491424 62.88153340021932 12.205226723039582
      vertex 2.8711035421746365 63.0241352623301 12.319308212754976
    endloop
  endfacet
  facet normal 0.5090414157503788 -0.8607420270039393 0
    outer loop
      vertex 2.3208660251050164 62.72163962751007 12.7
      vertex 2.591231629491424 62.88153340021932 12.205226723039582
      vertex 2.591231629491424 62.88153340021932 12.7
    endloop
  endfacet
  facet normal -1.040448394226325e-15 -0.6246950476438085 0.780868809371523
    outer loop
      vertex 2.061073738537634 62.545084971874736 11.936067980300754
      vertex 4.9999998814593125 63.49999999627471 12.7
      vertex 2.3208660251050164 62.72163962751007 12.077311704842167
    endloop
  endfacet
  facet normal 0.4539904997395485 -0.891006524188367 0
    outer loop
      vertex 2.591231629491424 62.88153340021932 12.7
      vertex 2.8711035421746365 63.0241352623301 12.319308212754976
      vertex 2.8711035421746365 63.0241352623301 12.7
    endloop
  endfacet
  facet normal 0.3971478906347805 -0.9177546256839811 0
    outer loop
      vertex 2.8711035421746365 63.0241352623301 12.319308212754976
      vertex 3.159377236576611 63.14888242944126 12.7
      vertex 2.8711035421746365 63.0241352623301 12.7
    endloop
  endfacet
  facet normal 0.39714789063478056 -0.9177546256839811 0
    outer loop
      vertex 3.159377236576611 63.14888242944126 12.7
      vertex 2.8711035421746365 63.0241352623301 12.319308212754976
      vertex 3.159377236576611 63.14888242944126 12.419105946467322
    endloop
  endfacet
  facet normal 0.33873792024529026 -0.940880768954226 0
    outer loop
      vertex 3.159377236576611 63.14888242944126 12.419105946467322
      vertex 3.4549150281252627 63.25528258147577 12.7
      vertex 3.159377236576611 63.14888242944126 12.7
    endloop
  endfacet
  facet normal 2.5856800373237368e-15 -0.6246950476438159 0.780868809371517
    outer loop
      vertex 2.3208660251050164 62.72163962751007 12.077311704842167
      vertex 4.9999998814593125 63.49999999627471 12.7
      vertex 2.591231629491424 62.88153340021932 12.205226723039582
    endloop
  endfacet
  facet normal -1.5262696973454808e-15 -0.6246950476438061 0.7808688093715249
    outer loop
      vertex 2.591231629491424 62.88153340021932 12.205226723039582
      vertex 4.9999998814593125 63.49999999627471 12.7
      vertex 2.8711035421746365 63.0241352623301 12.319308212754976
    endloop
  endfacet
  facet normal 0.3387379202452902 -0.9408807689542259 0
    outer loop
      vertex 3.4549150281252627 63.25528258147577 12.7
      vertex 3.159377236576611 63.14888242944126 12.419105946467322
      vertex 3.4549150281252627 63.25528258147577 12.504226068114905
    endloop
  endfacet
  facet normal 0.2789911060392384 -0.9602936856769404 0
    outer loop
      vertex 3.4549150281252627 63.25528258147577 12.7
      vertex 3.4549150281252627 63.25528258147577 12.504226068114905
      vertex 3.7565505641757255 63.34291580564316 12.574332647465269
    endloop
  endfacet
  facet normal -2.954064232225299e-16 -0.6246950476438095 0.7808688093715221
    outer loop
      vertex 2.8711035421746365 63.0241352623301 12.319308212754976
      vertex 4.9999998814593125 63.49999999627471 12.7
      vertex 3.159377236576611 63.14888242944126 12.419105946467322
    endloop
  endfacet
  facet normal 0.2789911060392383 -0.9602936856769404 0
    outer loop
      vertex 3.4549150281252627 63.25528258147577 12.7
      vertex 3.7565505641757255 63.34291580564316 12.574332647465269
      vertex 3.7565505641757255 63.34291580564316 12.7
    endloop
  endfacet
  facet normal 0 0 -1
    outer loop
      vertex 24.924135262330097 60.62889645782536 12.7
      vertex 0 5 12.7
      vertex 0 58.5 12.7
    endloop
  endfacet
  facet normal -5.296314088522498e-16 -0.6246950476438088 0.7808688093715227
    outer loop
      vertex 3.159377236576611 63.14888242944126 12.419105946467322
      vertex 4.9999998814593125 63.49999999627471 12.7
      vertex 3.4549150281252627 63.25528258147577 12.504226068114905
    endloop
  endfacet
  facet normal 0.2181432413965344 -0.9759167619387492 0
    outer loop
      vertex 3.7565505641757255 63.34291580564316 12.7
      vertex 3.7565505641757255 63.34291580564316 12.574332647465269
      vertex 4.063093427071377 63.411436253643444 12.62914900587836
    endloop
  endfacet
  facet normal 0.21814324139653446 -0.9759167619387493 0
    outer loop
      vertex 3.7565505641757255 63.34291580564316 12.7
      vertex 4.063093427071377 63.411436253643444 12.62914900587836
      vertex 4.063093427071377 63.411436253643444 12.7
    endloop
  endfacet
  facet normal 4.3990740761664805e-17 -0.624695047643811 0.780868809371521
    outer loop
      vertex 3.4549150281252627 63.25528258147577 12.504226068114905
      vertex 4.9999998814593125 63.49999999627471 12.7
      vertex 3.7565505641757255 63.34291580564316 12.574332647465269
    endloop
  endfacet
  facet normal 0.156434465040224 -0.9876883405951388 0
    outer loop
      vertex 4.063093427071377 63.411436253643444 12.7
      vertex 4.063093427071377 63.411436253643444 12.62914900587836
      vertex 4.373333832178479 63.46057350657239 12.7
    endloop
  endfacet
  facet normal 7.312497712995115e-16 -0.624695047643814 0.7808688093715185
    outer loop
      vertex 3.7565505641757255 63.34291580564316 12.574332647465269
      vertex 4.9999998814593125 63.49999999627471 12.7
      vertex 4.063093427071377 63.411436253643444 12.62914900587836
    endloop
  endfacet
  facet normal 0.15643446504022404 -0.9876883405951389 0
    outer loop
      vertex 4.373333832178479 63.46057350657239 12.7
      vertex 4.063093427071377 63.411436253643444 12.62914900587836
      vertex 4.373333832178479 63.46057350657239 12.66845880823074
    endloop
  endfacet
  facet normal 4.926196325193214e-16 -0.6246950476438126 0.7808688093715197
    outer loop
      vertex 4.063093427071377 63.411436253643444 12.62914900587836
      vertex 4.9999998814593125 63.49999999627471 12.7
      vertex 4.373333832178479 63.46057350657239 12.66845880823074
    endloop
  endfacet
  facet normal 0.09410831331852217 -0.9955619646030792 0
    outer loop
      vertex 4.373333832178479 63.46057350657239 12.7
      vertex 4.373333832178479 63.46057350657239 12.66845880823074
      vertex 4.6860474023534335 63.49013364214136 12.692106916691467
    endloop
  endfacet
  facet normal 0.09410831331852218 -0.9955619646030793 0
    outer loop
      vertex 4.373333832178479 63.46057350657239 12.7
      vertex 4.6860474023534335 63.49013364214136 12.692106916691467
      vertex 4.6860474023534335 63.49013364214136 12.7
    endloop
  endfacet
  facet normal 6.969598322703873e-16 -0.6246950476438148 0.7808688093715179
    outer loop
      vertex 4.373333832178479 63.46057350657239 12.66845880823074
      vertex 4.9999998814593125 63.49999999627471 12.7
      vertex 4.6860474023534335 63.49013364214136 12.692106916691467
    endloop
  endfacet
  facet normal 0.03141075907812766 -0.9995065603657316 0
    outer loop
      vertex 4.6860474023534335 63.49013364214136 12.7
      vertex 4.6860474023534335 63.49013364214136 12.692106916691467
      vertex 4.9999998814593125 63.49999999627471 12.7
    endloop
  endfacet
  facet normal 0 0 -1
    outer loop
      vertex 0 58.5 12.7
      vertex 0.009866357858641983 58.81395259764657 12.7
      vertex 24.924135262330097 60.62889645782536 12.7
    endloop
  endfacet
  facet normal 0 0 -1
    outer loop
      vertex 0.009866357858641983 58.81395259764657 12.7
      vertex 0.03942649342761051 59.12666616782152 12.7
      vertex 24.924135262330097 60.62889645782536 12.7
    endloop
  endfacet
  facet normal 0 0 -1
    outer loop
      vertex 0.03942649342761051 59.12666616782152 12.7
      vertex 0.08856374635655673 59.43690657292862 12.7
      vertex 24.924135262330097 60.62889645782536 12.7
    endloop
  endfacet
  facet normal 0 0 -1
    outer loop
      vertex 0.08856374635655673 59.43690657292862 12.7
      vertex 0.15708419435684462 59.743449435824274 12.7
      vertex 24.924135262330097 60.62889645782536 12.7
    endloop
  endfacet
  facet normal 0 0 -1
    outer loop
      vertex 0.15708419435684462 59.743449435824274 12.7
      vertex 0.24471741852423268 60.045084971874736 12.7
      vertex 24.924135262330097 60.62889645782536 12.7
    endloop
  endfacet
  facet normal 0 0 -1
    outer loop
      vertex 0.24471741852423268 60.045084971874736 12.7
      vertex 0.3511175705587428 60.34062276342339 12.7
      vertex 24.924135262330097 60.62889645782536 12.7
    endloop
  endfacet
  facet normal 0 0 -1
    outer loop
      vertex 0.3511175705587428 60.34062276342339 12.7
      vertex 0.47586473766990167 60.62889645782536 12.7
      vertex 24.924135262330097 60.62889645782536 12.7
    endloop
  endfacet
  facet normal 0 0 -1
    outer loop
      vertex 0.47586473766990167 60.62889645782536 12.7
      vertex 0.6184665997806826 60.908768370508575 12.7
      vertex 24.924135262330097 60.62889645782536 12.7
    endloop
  endfacet
  facet normal 0 0 -1
    outer loop
      vertex 0.6184665997806826 60.908768370508575 12.7
      vertex 0.7783603724899253 61.17913397489498 12.7
      vertex 24.924135262330097 60.62889645782536 12.7
    endloop
  endfacet
  facet normal 0 0 -1
    outer loop
      vertex 0.7783603724899253 61.17913397489498 12.7
      vertex 0.9549150281252627 61.43892626146236 12.7
      vertex 24.924135262330097 60.62889645782536 12.7
    endloop
  endfacet
  facet normal 0 0 -1
    outer loop
      vertex 0.9549150281252627 61.43892626146236 12.7
      vertex 1.147433786121053 61.68711994874345 12.7
      vertex 24.924135262330097 60.62889645782536 12.7
    endloop
  endfacet
  facet normal 0 0 -1
    outer loop
      vertex 1.147433786121053 61.68711994874345 12.7
      vertex 1.3551568628929416 61.92273552964344 12.7
      vertex 24.924135262330097 60.62889645782536 12.7
    endloop
  endfacet
  facet normal 0 0 -1
    outer loop
      vertex 1.3551568628929416 61.92273552964344 12.7
      vertex 1.5772644703565577 62.14484313710706 12.7
      vertex 24.924135262330097 60.62889645782536 12.7
    endloop
  endfacet
  facet normal 0 0 -1
    outer loop
      vertex 1.5772644703565577 62.14484313710706 12.7
      vertex 1.8128800512565517 62.352566213878944 12.7
      vertex 24.924135262330097 60.62889645782536 12.7
    endloop
  endfacet
  facet normal 0 0 -1
    outer loop
      vertex 1.8128800512565517 62.352566213878944 12.7
      vertex 2.061073738537634 62.545084971874736 12.7
      vertex 24.924135262330097 60.62889645782536 12.7
    endloop
  endfacet
  facet normal 0 0 -1
    outer loop
      vertex 2.061073738537634 62.545084971874736 12.7
      vertex 2.3208660251050164 62.72163962751007 12.7
      vertex 24.924135262330097 60.62889645782536 12.7
    endloop
  endfacet
  facet normal 0 0 -1
    outer loop
      vertex 2.3208660251050164 62.72163962751007 12.7
      vertex 2.591231629491424 62.88153340021932 12.7
      vertex 24.924135262330097 60.62889645782536 12.7
    endloop
  endfacet
  facet normal 0 0 -1
    outer loop
      vertex 2.591231629491424 62.88153340021932 12.7
      vertex 2.8711035421746365 63.0241352623301 12.7
      vertex 24.924135262330097 60.62889645782536 12.7
    endloop
  endfacet
  facet normal 0 0 -1
    outer loop
      vertex 2.8711035421746365 63.0241352623301 12.7
      vertex 3.159377236576611 63.14888242944126 12.7
      vertex 24.924135262330097 60.62889645782536 12.7
    endloop
  endfacet
  facet normal 0 0 -1
    outer loop
      vertex 3.159377236576611 63.14888242944126 12.7
      vertex 3.4549150281252627 63.25528258147577 12.7
      vertex 24.924135262330097 60.62889645782536 12.7
    endloop
  endfacet
  facet normal 0 0 -1
    outer loop
      vertex 3.4549150281252627 63.25528258147577 12.7
      vertex 3.7565505641757255 63.34291580564316 12.7
      vertex 24.924135262330097 60.62889645782536 12.7
    endloop
  endfacet
  facet normal 0 0 -1
    outer loop
      vertex 3.7565505641757255 63.34291580564316 12.7
      vertex 4.063093427071377 63.411436253643444 12.7
      vertex 24.924135262330097 60.62889645782536 12.7
    endloop
  endfacet
  facet normal 0 0 -1
    outer loop
      vertex 4.063093427071377 63.411436253643444 12.7
      vertex 4.373333832178479 63.46057350657239 12.7
      vertex 24.924135262330097 60.62889645782536 12.7
    endloop
  endfacet
  facet normal 0 0 -1
    outer loop
      vertex 4.373333832178479 63.46057350657239 12.7
      vertex 4.6860474023534335 63.49013364214136 12.7
      vertex 24.924135262330097 60.62889645782536 12.7
    endloop
  endfacet
  facet normal 0 0 -1
    outer loop
      vertex 4.6860474023534335 63.49013364214136 12.7
      vertex 4.9999998814593125 63.49999999627471 12.7
      vertex 24.924135262330097 60.62889645782536 12.7
    endloop
  endfacet
  facet normal -1 0 0
    outer loop
      vertex 25.4 5 12.7
      vertex 25.4 47.625 0
      vertex 25.4 5 0
    endloop
  endfacet
  facet normal 0 -1 0
    outer loop
      vertex 25.4 5 12.7
      vertex 25.4 5 0
      vertex 30.4 5 0
    endloop
  endfacet
  facet normal 0 0 -1
    outer loop
      vertex 30.4 5 0
      vertex 25.4 5 0
      vertex 25.4 47.625 0
    endloop
  endfacet
  facet normal 1 0 0
    outer loop
      vertex 30.4 5 17.7
      vertex 30.4 5 0
      vertex 30.4 68.5 0
    endloop
  endfacet
  facet normal 0 -1 0
    outer loop
      vertex 25.4 5 12.7
      vertex 30.4 5 17.7
      vertex -5 5 17.7
    endloop
  endfacet
  facet normal 0 0 -1
    outer loop
      vertex 24.924135262330097 60.62889645782536 12.7
      vertex 25.4 5 12.7
      vertex 0 5 12.7
    endloop
  endfacet
  facet normal 0 -1 0
    outer loop
      vertex 25.4 5 12.7
      vertex 30.4 5 0
      vertex 30.4 5 17.7
    endloop
  endfacet
  facet normal 0 -0.6246950476438106 0.7808688093715214
    outer loop
      vertex 0 47.625 0
      vertex 25.4 47.625 0
      vertex 24.04484313710706 61.92273552964345 11.43818842639889
    endloop
  endfacet
  facet normal 0 0 -1
    outer loop
      vertex 25.4 47.625 0
      vertex 0 47.625 0
      vertex 30.4 68.5 0
    endloop
  endfacet
  facet normal 0 -0.6246950476438122 0.78086880937152
    outer loop
      vertex 0 47.625 0
      vertex 20.713952597646564 63.49013364214136 12.692106916691467
      vertex 20.400000118540685 63.49999999627471 12.7
    endloop
  endfacet
  facet normal 0 -0.6246950476438105 0.7808688093715214
    outer loop
      vertex 0 47.625 0
      vertex 21.02666616782152 63.46057350657239 12.66845880823074
      vertex 20.713952597646564 63.49013364214136 12.692106916691467
    endloop
  endfacet
  facet normal 0 -0.6246950476438116 0.7808688093715205
    outer loop
      vertex 0 47.625 0
      vertex 21.336906572928623 63.411436253643444 12.62914900587836
      vertex 21.02666616782152 63.46057350657239 12.66845880823074
    endloop
  endfacet
  facet normal 0 -0.6246950476438137 0.7808688093715188
    outer loop
      vertex 0 47.625 0
      vertex 21.643449435824273 63.34291580564316 12.574332647465269
      vertex 21.336906572928623 63.411436253643444 12.62914900587836
    endloop
  endfacet
  facet normal -3.3435379219697895e-15 -0.6246950476438068 0.7808688093715243
    outer loop
      vertex 0 47.625 0
      vertex 21.945084971874735 63.25528258147577 12.504226068114907
      vertex 21.643449435824273 63.34291580564316 12.574332647465269
    endloop
  endfacet
  facet normal 3.19135322986903e-15 -0.6246950476438101 0.7808688093715216
    outer loop
      vertex 0 47.625 0
      vertex 22.24062276342339 63.14888242944126 12.419105946467322
      vertex 21.945084971874735 63.25528258147577 12.504226068114907
    endloop
  endfacet
  facet normal -5.212109312515861e-15 -0.6246950476438061 0.7808688093715247
    outer loop
      vertex 0 47.625 0
      vertex 24.04484313710706 61.92273552964345 11.43818842639889
      vertex 23.82273552964344 62.14484313710706 11.615874512411473
    endloop
  endfacet
  facet normal 0 -0.6246950476438088 0.7808688093715228
    outer loop
      vertex 0 47.625 0
      vertex 22.52889645782536 63.0241352623301 12.319308212754976
      vertex 22.24062276342339 63.14888242944126 12.419105946467322
    endloop
  endfacet
  facet normal -2.9503196735069264e-15 -0.6246950476438103 0.7808688093715215
    outer loop
      vertex 0 47.625 0
      vertex 22.808768370508574 62.88153340021932 12.205226723039582
      vertex 22.52889645782536 63.0241352623301 12.319308212754976
    endloop
  endfacet
  facet normal 0 -0.6246950476438146 0.780868809371518
    outer loop
      vertex 0 47.625 0
      vertex 23.079133974894983 62.72163962751007 12.077311704842167
      vertex 22.808768370508574 62.88153340021932 12.205226723039582
    endloop
  endfacet
  facet normal 0 -0.6246950476438092 0.7808688093715223
    outer loop
      vertex 0 47.625 0
      vertex 23.587119948743446 62.352566213878944 11.782052973867977
      vertex 23.338926261462365 62.545084971874736 11.936067980300752
    endloop
  endfacet
  facet normal 0 -0.62469504764381 0.7808688093715218
    outer loop
      vertex 0 47.625 0
      vertex 23.82273552964344 62.14484313710706 11.615874512411473
      vertex 23.587119948743446 62.352566213878944 11.782052973867977
    endloop
  endfacet
  facet normal 2.7753415097200447e-15 -0.6246950476438106 0.7808688093715213
    outer loop
      vertex 0 47.625 0
      vertex 23.338926261462365 62.545084971874736 11.936067980300752
      vertex 23.079133974894983 62.72163962751007 12.077311704842167
    endloop
  endfacet
  facet normal 0 0 -1
    outer loop
      vertex 30.4 68.5 0
      vertex 30.4 5 0
      vertex 25.4 47.625 0
    endloop
  endfacet
  facet normal -1 0 0
    outer loop
      vertex 25.4 47.625 0
      vertex 25.4 5 12.7
      vertex 25.4 58.5 8.700000002041577
    endloop
  endfacet
  facet normal -4.847897478639004e-14 -0.6246950476438106 0.7808688093715214
    outer loop
      vertex 25.390133642141357 58.81395259764657 8.95116208021777
      vertex 25.4 47.625 0
      vertex 25.4 58.5 8.700000002041577
    endloop
  endfacet
  facet normal 6.667503977436823e-14 -0.6246950476438105 0.7808688093715214
    outer loop
      vertex 25.360573506572386 59.12666616782152 9.201332936416438
      vertex 25.4 47.625 0
      vertex 25.390133642141357 58.81395259764657 8.95116208021777
    endloop
  endfacet
  facet normal -5.330871054692147e-14 -0.6246950476438107 0.7808688093715211
    outer loop
      vertex 25.311436253643443 59.43690657292862 9.449525260560359
      vertex 25.4 47.625 0
      vertex 25.360573506572386 59.12666616782152 9.201332936416438
    endloop
  endfacet
  facet normal 7.979914640103927e-15 -0.6246950476438103 0.7808688093715213
    outer loop
      vertex 25.242915805643154 59.743449435824274 9.69475955093443
      vertex 25.4 47.625 0
      vertex 25.311436253643443 59.43690657292862 9.449525260560359
    endloop
  endfacet
  facet normal 1.9481829635671686e-14 -0.6246950476438103 0.7808688093715215
    outer loop
      vertex 25.155282581475767 60.045084971874736 9.936067979831428
      vertex 25.4 47.625 0
      vertex 25.242915805643154 59.743449435824274 9.69475955093443
    endloop
  endfacet
  facet normal 3.2692192099714606e-15 -0.6246950476438105 0.7808688093715214
    outer loop
      vertex 24.924135262330097 60.62889645782536 10.40311716870153
      vertex 25.4 47.625 0
      vertex 25.048882429441257 60.34062276342339 10.172498213125833
    endloop
  endfacet
  facet normal -2.7760339640734737e-16 -0.6246950476438106 0.7808688093715214
    outer loop
      vertex 25.048882429441257 60.34062276342339 10.172498213125833
      vertex 25.4 47.625 0
      vertex 25.155282581475767 60.045084971874736 9.936067979831428
    endloop
  endfacet
  facet normal -2.2162052486196755e-15 -0.6246950476438106 0.7808688093715213
    outer loop
      vertex 24.781533400219317 60.908768370508575 10.62701469890064
      vertex 25.4 47.625 0
      vertex 24.924135262330097 60.62889645782536 10.40311716870153
    endloop
  endfacet
  facet normal -1.630400051108444e-14 -0.6246950476438111 0.7808688093715209
    outer loop
      vertex 24.621639627510074 61.17913397489498 10.843307182460517
      vertex 25.4 47.625 0
      vertex 24.781533400219317 60.908768370508575 10.62701469890064
    endloop
  endfacet
  facet normal 9.65536668533532e-15 -0.6246950476438101 0.7808688093715216
    outer loop
      vertex 24.445084971874735 61.43892626146236 11.051141011763196
      vertex 25.4 47.625 0
      vertex 24.621639627510074 61.17913397489498 10.843307182460517
    endloop
  endfacet
  facet normal -4.1513942069124724e-15 -0.6246950476438108 0.7808688093715211
    outer loop
      vertex 24.252566213878943 61.68711994874345 11.249695961634659
      vertex 25.4 47.625 0
      vertex 24.445084971874735 61.43892626146236 11.051141011763196
    endloop
  endfacet
  facet normal 7.19539670817831e-15 -0.6246950476438102 0.7808688093715216
    outer loop
      vertex 24.04484313710706 61.92273552964345 11.43818842639889
      vertex 25.4 47.625 0
      vertex 24.252566213878943 61.68711994874345 11.249695961634659
    endloop
  endfacet
  facet normal 0 0 1
    outer loop
      vertex -5 68.5 17.7
      vertex 30.4 5 17.7
      vertex 30.4 68.5 17.7
    endloop
  endfacet
  facet normal 0 0 -1
    outer loop
      vertex 4.9999998814593125 63.49999999627471 12.7
      vertex 20.400000118540685 63.49999999627471 12.7
      vertex 20.713952597646564 63.49013364214136 12.7
    endloop
  endfacet
  facet normal 0 0 -1
    outer loop
      vertex 4.9999998814593125 63.49999999627471 12.7
      vertex 20.713952597646564 63.49013364214136 12.7
      vertex 24.924135262330097 60.62889645782536 12.7
    endloop
  endfacet
  facet normal 0 1 0
    outer loop
      vertex 30.4 68.5 0
      vertex -5 68.5 17.7
      vertex 30.4 68.5 17.7
    endloop
  endfacet
  facet normal -0.03141075907812766 -0.9995065603657316 0
    outer loop
      vertex 20.400000118540685 63.49999999627471 12.7
      vertex 20.713952597646564 63.49013364214136 12.692106916691467
      vertex 20.713952597646564 63.49013364214136 12.7
    endloop
  endfacet
  facet normal -0.09410831331852164 -0.9955619646030793 0
    outer loop
      vertex 20.713952597646564 63.49013364214136 12.7
      vertex 20.713952597646564 63.49013364214136 12.692106916691467
      vertex 21.02666616782152 63.46057350657239 12.7
    endloop
  endfacet
  facet normal -0.09410831331852164 -0.9955619646030793 0
    outer loop
      vertex 20.713952597646564 63.49013364214136 12.692106916691467
      vertex 21.02666616782152 63.46057350657239 12.66845880823074
      vertex 21.02666616782152 63.46057350657239 12.7
    endloop
  endfacet
  facet normal -0.15643446504022404 -0.9876883405951389 0
    outer loop
      vertex 21.02666616782152 63.46057350657239 12.7
      vertex 21.02666616782152 63.46057350657239 12.66845880823074
      vertex 21.336906572928623 63.411436253643444 12.7
    endloop
  endfacet
  facet normal -0.15643446504022404 -0.9876883405951388 0
    outer loop
      vertex 21.02666616782152 63.46057350657239 12.66845880823074
      vertex 21.336906572928623 63.411436253643444 12.62914900587836
      vertex 21.336906572928623 63.411436253643444 12.7
    endloop
  endfacet
  facet normal -0.21814324139653507 -0.9759167619387492 0
    outer loop
      vertex 21.336906572928623 63.411436253643444 12.62914900587836
      vertex 21.643449435824273 63.34291580564316 12.574332647465269
      vertex 21.643449435824273 63.34291580564316 12.7
    endloop
  endfacet
  facet normal -0.21814324139653507 -0.9759167619387492 0
    outer loop
      vertex 21.336906572928623 63.411436253643444 12.7
      vertex 21.336906572928623 63.411436253643444 12.62914900587836
      vertex 21.643449435824273 63.34291580564316 12.7
    endloop
  endfacet
  facet normal -1 0 0
    outer loop
      vertex 25.4 58.5 8.700000002041577
      vertex 25.4 5 12.7
      vertex 25.4 58.5 12.7
    endloop
  endfacet
  facet normal 0 0 -1
    outer loop
      vertex 25.4 5 12.7
      vertex 24.924135262330097 60.62889645782536 12.7
      vertex 25.4 58.5 12.7
    endloop
  endfacet
  facet normal 1 0 0
    outer loop
      vertex 30.4 68.5 17.7
      vertex 30.4 5 17.7
      vertex 30.4 68.5 0
    endloop
  endfacet
  facet normal -0.9995065603657317 -0.03141075907812459 0
    outer loop
      vertex 25.4 58.5 8.700000002041577
      vertex 25.4 58.5 12.7
      vertex 25.390133642141357 58.81395259764657 8.95116208021777
    endloop
  endfacet
  facet normal -0.9955619646030792 -0.09410831331852376 0
    outer loop
      vertex 25.360573506572386 59.12666616782152 9.201332936416438
      vertex 25.390133642141357 58.81395259764657 8.95116208021777
      vertex 25.390133642141357 58.81395259764657 12.7
    endloop
  endfacet
  facet normal -0.9876883405951389 -0.15643446504022404 0
    outer loop
      vertex 25.311436253643443 59.43690657292862 9.449525260560359
      vertex 25.360573506572386 59.12666616782152 9.201332936416438
      vertex 25.360573506572386 59.12666616782152 12.7
    endloop
  endfacet
  facet normal -0.9759167619387471 -0.2181432413965434 0
    outer loop
      vertex 25.242915805643154 59.743449435824274 9.69475955093443
      vertex 25.311436253643443 59.43690657292862 9.449525260560359
      vertex 25.311436253643443 59.43690657292862 12.7
    endloop
  endfacet
  facet normal -0.9602936856769432 -0.27899110603922866 0
    outer loop
      vertex 25.155282581475767 60.045084971874736 9.936067979831428
      vertex 25.242915805643154 59.743449435824274 9.69475955093443
      vertex 25.242915805643154 59.743449435824274 12.7
    endloop
  endfacet
  facet normal -0.9408807689542266 -0.33873792024528837 0
    outer loop
      vertex 25.048882429441257 60.34062276342339 10.172498213125833
      vertex 25.155282581475767 60.045084971874736 9.936067979831428
      vertex 25.155282581475767 60.045084971874736 12.7
    endloop
  endfacet
  facet normal -0.9995065603657317 -0.031410759078124594 0
    outer loop
      vertex 25.390133642141357 58.81395259764657 8.95116208021777
      vertex 25.4 58.5 12.7
      vertex 25.390133642141357 58.81395259764657 12.7
    endloop
  endfacet
  facet normal -0.9955619646030791 -0.09410831331852376 0
    outer loop
      vertex 25.360573506572386 59.12666616782152 9.201332936416438
      vertex 25.390133642141357 58.81395259764657 12.7
      vertex 25.360573506572386 59.12666616782152 12.7
    endloop
  endfacet
  facet normal -0.9177546256839804 -0.39714789063478256 0
    outer loop
      vertex 24.924135262330097 60.62889645782536 10.40311716870153
      vertex 25.048882429441257 60.34062276342339 10.172498213125833
      vertex 25.048882429441257 60.34062276342339 12.7
    endloop
  endfacet
  facet normal -0.9876883405951387 -0.156434465040224 0
    outer loop
      vertex 25.311436253643443 59.43690657292862 9.449525260560359
      vertex 25.360573506572386 59.12666616782152 12.7
      vertex 25.311436253643443 59.43690657292862 12.7
    endloop
  endfacet
  facet normal -0.9408807689542266 -0.33873792024528837 0
    outer loop
      vertex 25.048882429441257 60.34062276342339 10.172498213125833
      vertex 25.155282581475767 60.045084971874736 12.7
      vertex 25.048882429441257 60.34062276342339 12.7
    endloop
  endfacet
  facet normal -0.9759167619387472 -0.2181432413965434 0
    outer loop
      vertex 25.242915805643154 59.743449435824274 9.69475955093443
      vertex 25.311436253643443 59.43690657292862 12.7
      vertex 25.242915805643154 59.743449435824274 12.7
    endloop
  endfacet
  facet normal -0.9602936856769432 -0.27899110603922866 0
    outer loop
      vertex 25.155282581475767 60.045084971874736 9.936067979831428
      vertex 25.242915805643154 59.743449435824274 12.7
      vertex 25.155282581475767 60.045084971874736 12.7
    endloop
  endfacet
  facet normal -0.9177546256839804 -0.39714789063478256 0
    outer loop
      vertex 24.924135262330097 60.62889645782536 10.40311716870153
      vertex 25.048882429441257 60.34062276342339 12.7
      vertex 24.924135262330097 60.62889645782536 12.7
    endloop
  endfacet
  facet normal 0 0 -1
    outer loop
      vertex 25.4 58.5 12.7
      vertex 24.924135262330097 60.62889645782536 12.7
      vertex 25.390133642141357 58.81395259764657 12.7
    endloop
  endfacet
  facet normal 0 0 -1
    outer loop
      vertex 25.390133642141357 58.81395259764657 12.7
      vertex 24.924135262330097 60.62889645782536 12.7
      vertex 25.360573506572386 59.12666616782152 12.7
    endloop
  endfacet
  facet normal 0 0 -1
    outer loop
      vertex 25.155282581475767 60.045084971874736 12.7
      vertex 25.242915805643154 59.743449435824274 12.7
      vertex 24.924135262330097 60.62889645782536 12.7
    endloop
  endfacet
  facet normal 0 0 -1
    outer loop
      vertex 25.048882429441257 60.34062276342339 12.7
      vertex 25.155282581475767 60.045084971874736 12.7
      vertex 24.924135262330097 60.62889645782536 12.7
    endloop
  endfacet
  facet normal 0 0 -1
    outer loop
      vertex 25.360573506572386 59.12666616782152 12.7
      vertex 24.924135262330097 60.62889645782536 12.7
      vertex 25.311436253643443 59.43690657292862 12.7
    endloop
  endfacet
  facet normal 0 0 -1
    outer loop
      vertex 25.311436253643443 59.43690657292862 12.7
      vertex 24.924135262330097 60.62889645782536 12.7
      vertex 25.242915805643154 59.743449435824274 12.7
    endloop
  endfacet
  facet normal -0.6129070536529824 -0.7901550123756859 0
    outer loop
      vertex 23.587119948743446 62.352566213878944 12.7
      vertex 23.338926261462365 62.545084971874736 11.936067980300752
      vertex 23.587119948743446 62.352566213878944 11.782052973867977
    endloop
  endfacet
  facet normal -0.6613118653236431 -0.7501110696304673 0
    outer loop
      vertex 23.587119948743446 62.352566213878944 11.782052973867977
      vertex 23.82273552964344 62.14484313710706 11.615874512411473
      vertex 23.82273552964344 62.14484313710706 12.7
    endloop
  endfacet
  facet normal 0 0 -1
    outer loop
      vertex 20.713952597646564 63.49013364214136 12.7
      vertex 21.02666616782152 63.46057350657239 12.7
      vertex 24.924135262330097 60.62889645782536 12.7
    endloop
  endfacet
  facet normal 0 0 -1
    outer loop
      vertex 21.02666616782152 63.46057350657239 12.7
      vertex 21.336906572928623 63.411436253643444 12.7
      vertex 24.924135262330097 60.62889645782536 12.7
    endloop
  endfacet
  facet normal 0 0 -1
    outer loop
      vertex 21.336906572928623 63.411436253643444 12.7
      vertex 21.643449435824273 63.34291580564316 12.7
      vertex 24.924135262330097 60.62889645782536 12.7
    endloop
  endfacet
  facet normal -0.2789911060392391 -0.9602936856769403 0
    outer loop
      vertex 21.643449435824273 63.34291580564316 12.7
      vertex 21.643449435824273 63.34291580564316 12.574332647465269
      vertex 21.945084971874735 63.25528258147577 12.7
    endloop
  endfacet
  facet normal -0.2789911060392391 -0.9602936856769402 0
    outer loop
      vertex 21.643449435824273 63.34291580564316 12.574332647465269
      vertex 21.945084971874735 63.25528258147577 12.504226068114907
      vertex 21.945084971874735 63.25528258147577 12.7
    endloop
  endfacet
  facet normal -0.33873792024528837 -0.9408807689542266 0
    outer loop
      vertex 21.945084971874735 63.25528258147577 12.504226068114907
      vertex 22.24062276342339 63.14888242944126 12.7
      vertex 21.945084971874735 63.25528258147577 12.7
    endloop
  endfacet
  facet normal -0.3387379202452884 -0.9408807689542266 0
    outer loop
      vertex 21.945084971874735 63.25528258147577 12.504226068114907
      vertex 22.24062276342339 63.14888242944126 12.419105946467322
      vertex 22.24062276342339 63.14888242944126 12.7
    endloop
  endfacet
  facet normal -0.3971478906347826 -0.9177546256839803 0
    outer loop
      vertex 22.24062276342339 63.14888242944126 12.419105946467322
      vertex 22.52889645782536 63.0241352623301 12.7
      vertex 22.24062276342339 63.14888242944126 12.7
    endloop
  endfacet
  facet normal -0.4539904997395485 -0.891006524188367 0
    outer loop
      vertex 22.52889645782536 63.0241352623301 12.319308212754976
      vertex 22.808768370508574 62.88153340021932 12.7
      vertex 22.52889645782536 63.0241352623301 12.7
    endloop
  endfacet
  facet normal -0.3971478906347826 -0.9177546256839804 0
    outer loop
      vertex 22.24062276342339 63.14888242944126 12.419105946467322
      vertex 22.52889645782536 63.0241352623301 12.319308212754976
      vertex 22.52889645782536 63.0241352623301 12.7
    endloop
  endfacet
  facet normal 0 0 -1
    outer loop
      vertex 21.643449435824273 63.34291580564316 12.7
      vertex 21.945084971874735 63.25528258147577 12.7
      vertex 24.924135262330097 60.62889645782536 12.7
    endloop
  endfacet
  facet normal 0 0 -1
    outer loop
      vertex 21.945084971874735 63.25528258147577 12.7
      vertex 22.24062276342339 63.14888242944126 12.7
      vertex 24.924135262330097 60.62889645782536 12.7
    endloop
  endfacet
  facet normal -0.6613118653236431 -0.7501110696304673 0
    outer loop
      vertex 23.587119948743446 62.352566213878944 11.782052973867977
      vertex 23.82273552964344 62.14484313710706 12.7
      vertex 23.587119948743446 62.352566213878944 12.7
    endloop
  endfacet
  facet normal -0.6129070536529823 -0.7901550123756859 0
    outer loop
      vertex 23.338926261462365 62.545084971874736 11.936067980300752
      vertex 23.587119948743446 62.352566213878944 12.7
      vertex 23.338926261462365 62.545084971874736 12.7
    endloop
  endfacet
  facet normal 0 0 -1
    outer loop
      vertex 22.24062276342339 63.14888242944126 12.7
      vertex 22.52889645782536 63.0241352623301 12.7
      vertex 24.924135262330097 60.62889645782536 12.7
    endloop
  endfacet
  facet normal 0 0 -1
    outer loop
      vertex 22.52889645782536 63.0241352623301 12.7
      vertex 22.808768370508574 62.88153340021932 12.7
      vertex 24.924135262330097 60.62889645782536 12.7
    endloop
  endfacet
  facet normal 0 0 -1
    outer loop
      vertex 22.808768370508574 62.88153340021932 12.7
      vertex 23.079133974894983 62.72163962751007 12.7
      vertex 24.924135262330097 60.62889645782536 12.7
    endloop
  endfacet
  facet normal -0.4539904997395485 -0.891006524188367 0
    outer loop
      vertex 22.52889645782536 63.0241352623301 12.319308212754976
      vertex 22.808768370508574 62.88153340021932 12.205226723039582
      vertex 22.808768370508574 62.88153340021932 12.7
    endloop
  endfacet
  facet normal -0.5090414157503762 -0.8607420270039406 0
    outer loop
      vertex 22.808768370508574 62.88153340021932 12.205226723039582
      vertex 23.079133974894983 62.72163962751007 12.077311704842167
      vertex 23.079133974894983 62.72163962751007 12.7
    endloop
  endfacet
  facet normal -0.5090414157503763 -0.8607420270039408 0
    outer loop
      vertex 22.808768370508574 62.88153340021932 12.205226723039582
      vertex 23.079133974894983 62.72163962751007 12.7
      vertex 22.808768370508574 62.88153340021932 12.7
    endloop
  endfacet
  facet normal -0.5620833778521254 -0.8270805742745655 0
    outer loop
      vertex 23.079133974894983 62.72163962751007 12.077311704842167
      vertex 23.338926261462365 62.545084971874736 12.7
      vertex 23.079133974894983 62.72163962751007 12.7
    endloop
  endfacet
  facet normal -0.5620833778521254 -0.8270805742745654 0
    outer loop
      vertex 23.079133974894983 62.72163962751007 12.077311704842167
      vertex 23.338926261462365 62.545084971874736 11.936067980300752
      vertex 23.338926261462365 62.545084971874736 12.7
    endloop
  endfacet
  facet normal -0.82708057427456 -0.562083377852133 0
    outer loop
      vertex 24.445084971874735 61.43892626146236 11.051141011763196
      vertex 24.621639627510074 61.17913397489498 10.843307182460517
      vertex 24.621639627510074 61.17913397489498 12.7
    endloop
  endfacet
  facet normal -0.8607420270039426 -0.5090414157503729 0
    outer loop
      vertex 24.621639627510074 61.17913397489498 10.843307182460517
      vertex 24.781533400219317 60.908768370508575 10.62701469890064
      vertex 24.781533400219317 60.908768370508575 12.7
    endloop
  endfacet
  facet normal -0.7501110696304673 -0.6613118653236432 0
    outer loop
      vertex 24.04484313710706 61.92273552964345 11.43818842639889
      vertex 24.252566213878943 61.68711994874345 11.249695961634659
      vertex 24.252566213878943 61.68711994874345 12.7
    endloop
  endfacet
  facet normal -0.7071067811865419 -0.7071067811865532 0
    outer loop
      vertex 23.82273552964344 62.14484313710706 11.615874512411473
      vertex 24.04484313710706 61.92273552964345 11.43818842639889
      vertex 24.04484313710706 61.92273552964345 12.7
    endloop
  endfacet
  facet normal -0.7901550123756943 -0.6129070536529714 0
    outer loop
      vertex 24.252566213878943 61.68711994874345 11.249695961634659
      vertex 24.445084971874735 61.43892626146236 11.051141011763196
      vertex 24.445084971874735 61.43892626146236 12.7
    endloop
  endfacet
  facet normal -0.8270805742745603 -0.5620833778521331 0
    outer loop
      vertex 24.445084971874735 61.43892626146236 11.051141011763196
      vertex 24.621639627510074 61.17913397489498 12.7
      vertex 24.445084971874735 61.43892626146236 12.7
    endloop
  endfacet
  facet normal -0.891006524188367 -0.4539904997395485 0
    outer loop
      vertex 24.781533400219317 60.908768370508575 10.62701469890064
      vertex 24.924135262330097 60.62889645782536 12.7
      vertex 24.781533400219317 60.908768370508575 12.7
    endloop
  endfacet
  facet normal -0.8607420270039428 -0.5090414157503729 0
    outer loop
      vertex 24.621639627510074 61.17913397489498 10.843307182460517
      vertex 24.781533400219317 60.908768370508575 12.7
      vertex 24.621639627510074 61.17913397489498 12.7
    endloop
  endfacet
  facet normal -0.8910065241883669 -0.45399049973954847 0
    outer loop
      vertex 24.924135262330097 60.62889645782536 12.7
      vertex 24.781533400219317 60.908768370508575 10.62701469890064
      vertex 24.924135262330097 60.62889645782536 10.40311716870153
    endloop
  endfacet
  facet normal -0.7071067811865419 -0.7071067811865532 0
    outer loop
      vertex 23.82273552964344 62.14484313710706 11.615874512411473
      vertex 24.04484313710706 61.92273552964345 12.7
      vertex 23.82273552964344 62.14484313710706 12.7
    endloop
  endfacet
  facet normal -0.7501110696304673 -0.6613118653236432 0
    outer loop
      vertex 24.04484313710706 61.92273552964345 11.43818842639889
      vertex 24.252566213878943 61.68711994874345 12.7
      vertex 24.04484313710706 61.92273552964345 12.7
    endloop
  endfacet
  facet normal 0 0 -1
    outer loop
      vertex 23.079133974894983 62.72163962751007 12.7
      vertex 23.338926261462365 62.545084971874736 12.7
      vertex 24.924135262330097 60.62889645782536 12.7
    endloop
  endfacet
  facet normal 0 0 -1
    outer loop
      vertex 23.338926261462365 62.545084971874736 12.7
      vertex 23.587119948743446 62.352566213878944 12.7
      vertex 24.924135262330097 60.62889645782536 12.7
    endloop
  endfacet
  facet normal 0 0 -1
    outer loop
      vertex 23.587119948743446 62.352566213878944 12.7
      vertex 23.82273552964344 62.14484313710706 12.7
      vertex 24.924135262330097 60.62889645782536 12.7
    endloop
  endfacet
  facet normal 0 0 -1
    outer loop
      vertex 24.04484313710706 61.92273552964345 12.7
      vertex 24.924135262330097 60.62889645782536 12.7
      vertex 23.82273552964344 62.14484313710706 12.7
    endloop
  endfacet
  facet normal 0 0 -1
    outer loop
      vertex 24.924135262330097 60.62889645782536 12.7
      vertex 24.04484313710706 61.92273552964345 12.7
      vertex 24.252566213878943 61.68711994874345 12.7
    endloop
  endfacet
  facet normal 0 0 -1
    outer loop
      vertex 24.924135262330097 60.62889645782536 12.7
      vertex 24.252566213878943 61.68711994874345 12.7
      vertex 24.445084971874735 61.43892626146236 12.7
    endloop
  endfacet
  facet normal 0 0 -1
    outer loop
      vertex 24.781533400219317 60.908768370508575 12.7
      vertex 24.924135262330097 60.62889645782536 12.7
      vertex 24.621639627510074 61.17913397489498 12.7
    endloop
  endfacet
  facet normal 0 0 -1
    outer loop
      vertex 24.445084971874735 61.43892626146236 12.7
      vertex 24.621639627510074 61.17913397489498 12.7
      vertex 24.924135262330097 60.62889645782536 12.7
    endloop
  endfacet
  facet normal -0.7901550123756944 -0.6129070536529714 0
    outer loop
      vertex 24.252566213878943 61.68711994874345 11.249695961634659
      vertex 24.445084971874735 61.43892626146236 12.7
      vertex 24.252566213878943 61.68711994874345 12.7
    endloop
  endfacet
endsolid OpenSCAD_Model
