solid OpenSCAD_Model
  facet normal -1 0 0
    outer loop
      vertex 0 0 4
      vertex 0 9.95 4
      vertex 0 0 0
    endloop
  endfacet
  facet normal -1 0 0
    outer loop
      vertex 0 9.95 4
      vertex 0 13.95 4
      vertex 0 0 0
    endloop
  endfacet
  facet normal -1 0 0
    outer loop
      vertex 0 0 0
      vertex 0 33 4
      vertex 0 4 0
    endloop
  endfacet
  facet normal -1 0 0
    outer loop
      vertex 0 13.95 4
      vertex 0 19.049999999999997 4
      vertex 0 0 0
    endloop
  endfacet
  facet normal -1 0 0
    outer loop
      vertex 0 19.049999999999997 4
      vertex 0 23.049999999999997 4
      vertex 0 0 0
    endloop
  endfacet
  facet normal 0 -1 0
    outer loop
      vertex 0 0 0
      vertex 25 0 0
      vertex 0 0 4
    endloop
  endfacet
  facet normal 0 0 -1
    outer loop
      vertex 0 4 0
      vertex 0 29 0
      vertex 25 4 0
    endloop
  endfacet
  facet normal 0 0 1
    outer loop
      vertex 0 0 4
      vertex 25 0 4
      vertex 0 9.95 4
    endloop
  endfacet
  facet normal 0 0 1
    outer loop
      vertex 0 19.049999999999997 4
      vertex 0 13.95 4
      vertex 25 13.95 4
    endloop
  endfacet
  facet normal -1 0 0
    outer loop
      vertex 0 0 0
      vertex 0 23.049999999999997 4
      vertex 0 33 4
    endloop
  endfacet
  facet normal -1 0 0
    outer loop
      vertex 0 4 0
      vertex 0 33 4
      vertex 0 29 0
    endloop
  endfacet
  facet normal -1 0 0
    outer loop
      vertex 0 29 0
      vertex 0 33 4
      vertex 0 33 0
    endloop
  endfacet
  facet normal 0 1 0
    outer loop
      vertex 0 33 0
      vertex 0 33 4
      vertex 25 33 4
    endloop
  endfacet
  facet normal 0 0 1
    outer loop
      vertex 0 33 4
      vertex 0 23.049999999999997 4
      vertex 25 23.049999999999997 4
    endloop
  endfacet
  facet normal 0 -1 0
    outer loop
      vertex 0 0 4
      vertex 25 0 0
      vertex 25 0 4
    endloop
  endfacet
  facet normal 1 0 0
    outer loop
      vertex 25 0 0
      vertex 25 4 0
      vertex 25 0 4
    endloop
  endfacet
  facet normal 1 0 0
    outer loop
      vertex 25 4 0
      vertex 25 29 0
      vertex 25 0 4
    endloop
  endfacet
  facet normal 1 0 0
    outer loop
      vertex 25 0 4
      vertex 25 33 0
      vertex 25 9.95 4
    endloop
  endfacet
  facet normal 0 0 1
    outer loop
      vertex 25 0 4
      vertex 25 9.95 4
      vertex 0 9.95 4
    endloop
  endfacet
  facet normal 0 0 -1
    outer loop
      vertex 0 29 0
      vertex 25 29 0
      vertex 25 4 0
    endloop
  endfacet
  facet normal 0 1 0
    outer loop
      vertex 0 33 0
      vertex 25 33 4
      vertex 25 33 0
    endloop
  endfacet
  facet normal 1 0 0
    outer loop
      vertex 25 33 0
      vertex 25 13.95 4
      vertex 25 9.95 4
    endloop
  endfacet
  facet normal 1 0 0
    outer loop
      vertex 25 0 4
      vertex 25 29 0
      vertex 25 33 0
    endloop
  endfacet
  facet normal 1 0 0
    outer loop
      vertex 25 19.049999999999997 4
      vertex 25 13.95 4
      vertex 25 33 0
    endloop
  endfacet
  facet normal 1 0 0
    outer loop
      vertex 25 23.049999999999997 4
      vertex 25 19.049999999999997 4
      vertex 25 33 0
    endloop
  endfacet
  facet normal 1 0 0
    outer loop
      vertex 25 33 4
      vertex 25 23.049999999999997 4
      vertex 25 33 0
    endloop
  endfacet
  facet normal 0 0 1
    outer loop
      vertex 0 19.049999999999997 4
      vertex 25 13.95 4
      vertex 25 19.049999999999997 4
    endloop
  endfacet
  facet normal 0 0 1
    outer loop
      vertex 0 33 4
      vertex 25 23.049999999999997 4
      vertex 25 33 4
    endloop
  endfacet
  facet normal -1 0 0
    outer loop
      vertex 0 0 -8
      vertex 0 4 0
      vertex 0 4 -8
    endloop
  endfacet
  facet normal -1 0 0
    outer loop
      vertex 0 0 -8
      vertex 0 0 0
      vertex 0 4 0
    endloop
  endfacet
  facet normal 0 0 -1
    outer loop
      vertex 0 0 -8
      vertex 0 4 -8
      vertex 25 0 -8
    endloop
  endfacet
  facet normal 0 -1 0
    outer loop
      vertex 0 0 -8
      vertex 25 0 -8
      vertex 0 0 0
    endloop
  endfacet
  facet normal 0 1 0
    outer loop
      vertex 0 4 -8
      vertex 0 4 0
      vertex 25 4 0
    endloop
  endfacet
  facet normal 0 0 -1
    outer loop
      vertex 0 4 -8
      vertex 25 4 -8
      vertex 25 0 -8
    endloop
  endfacet
  facet normal 0 1 0
    outer loop
      vertex 0 4 -8
      vertex 25 4 0
      vertex 25 4 -8
    endloop
  endfacet
  facet normal 0 -1 0
    outer loop
      vertex 0 0 0
      vertex 25 0 -8
      vertex 25 0 0
    endloop
  endfacet
  facet normal 1 0 0
    outer loop
      vertex 25 0 -8
      vertex 25 4 -8
      vertex 25 0 0
    endloop
  endfacet
  facet normal 1 0 0
    outer loop
      vertex 25 4 -8
      vertex 25 4 0
      vertex 25 0 0
    endloop
  endfacet
  facet normal -1 0 0
    outer loop
      vertex 0 29 -12
      vertex 0 33 0
      vertex 0 33 -12
    endloop
  endfacet
  facet normal -1 0 0
    outer loop
      vertex 0 29 -12
      vertex 0 29 0
      vertex 0 33 0
    endloop
  endfacet
  facet normal 0 0 -1
    outer loop
      vertex 0 29 -12
      vertex 0 33 -12
      vertex 25 29 -12
    endloop
  endfacet
  facet normal 0 -1 0
    outer loop
      vertex 0 29 -12
      vertex 25 29 -12
      vertex 0 29 0
    endloop
  endfacet
  facet normal 0 1 0
    outer loop
      vertex 0 33 -12
      vertex 0 33 0
      vertex 25 33 0
    endloop
  endfacet
  facet normal 0 0 -1
    outer loop
      vertex 0 33 -12
      vertex 25 33 -12
      vertex 25 29 -12
    endloop
  endfacet
  facet normal 0 1 0
    outer loop
      vertex 0 33 -12
      vertex 25 33 0
      vertex 25 33 -12
    endloop
  endfacet
  facet normal 0 -1 0
    outer loop
      vertex 0 29 0
      vertex 25 29 -12
      vertex 25 29 0
    endloop
  endfacet
  facet normal 1 0 0
    outer loop
      vertex 25 29 -12
      vertex 25 33 -12
      vertex 25 29 0
    endloop
  endfacet
  facet normal 1 0 0
    outer loop
      vertex 25 33 -12
      vertex 25 33 0
      vertex 25 29 0
    endloop
  endfacet
  facet normal -1 0 0
    outer loop
      vertex 0 9.95 12
      vertex 0 13.95 12
      vertex 0 9.95 4
    endloop
  endfacet
  facet normal -1 0 0
    outer loop
      vertex 0 13.95 12
      vertex 0 13.95 4
      vertex 0 9.95 4
    endloop
  endfacet
  facet normal 0 -1 0
    outer loop
      vertex 0 9.95 12
      vertex 0 9.95 4
      vertex 25 9.95 4
    endloop
  endfacet
  facet normal 0 1 0
    outer loop
      vertex 0 13.95 12
      vertex 25 13.95 12
      vertex 0 13.95 4
    endloop
  endfacet
  facet normal 0 0 1
    outer loop
      vertex 0 9.95 12
      vertex 25 9.95 12
      vertex 0 13.95 12
    endloop
  endfacet
  facet normal 0 -1 0
    outer loop
      vertex 0 9.95 12
      vertex 25 9.95 4
      vertex 25 9.95 12
    endloop
  endfacet
  facet normal 0 1 0
    outer loop
      vertex 25 13.95 12
      vertex 25 13.95 4
      vertex 0 13.95 4
    endloop
  endfacet
  facet normal 0 0 1
    outer loop
      vertex 0 13.95 12
      vertex 25 9.95 12
      vertex 25 13.95 12
    endloop
  endfacet
  facet normal 1 0 0
    outer loop
      vertex 25 9.95 12
      vertex 25 9.95 4
      vertex 25 13.95 4
    endloop
  endfacet
  facet normal 1 0 0
    outer loop
      vertex 25 9.95 12
      vertex 25 13.95 4
      vertex 25 13.95 12
    endloop
  endfacet
  facet normal -1 0 0
    outer loop
      vertex 0 23.049999999999997 20
      vertex 0 23.049999999999997 4
      vertex 0 19.049999999999997 4
    endloop
  endfacet
  facet normal -1 0 0
    outer loop
      vertex 0 19.049999999999997 20
      vertex 0 23.049999999999997 20
      vertex 0 19.049999999999997 4
    endloop
  endfacet
  facet normal 0 -1 0
    outer loop
      vertex 0 19.049999999999997 20
      vertex 0 19.049999999999997 4
      vertex 25 19.049999999999997 4
    endloop
  endfacet
  facet normal 0 0 1
    outer loop
      vertex 0 19.049999999999997 20
      vertex 25 19.049999999999997 20
      vertex 0 23.049999999999997 20
    endloop
  endfacet
  facet normal 0 1 0
    outer loop
      vertex 0 23.049999999999997 20
      vertex 25 23.049999999999997 20
      vertex 0 23.049999999999997 4
    endloop
  endfacet
  facet normal 0 1 0
    outer loop
      vertex 25 23.049999999999997 20
      vertex 25 23.049999999999997 4
      vertex 0 23.049999999999997 4
    endloop
  endfacet
  facet normal 0 -1 0
    outer loop
      vertex 0 19.049999999999997 20
      vertex 25 19.049999999999997 4
      vertex 25 19.049999999999997 20
    endloop
  endfacet
  facet normal 0 0 1
    outer loop
      vertex 0 23.049999999999997 20
      vertex 25 19.049999999999997 20
      vertex 25 23.049999999999997 20
    endloop
  endfacet
  facet normal 1 0 0
    outer loop
      vertex 25 19.049999999999997 20
      vertex 25 19.049999999999997 4
      vertex 25 23.049999999999997 4
    endloop
  endfacet
  facet normal 1 0 0
    outer loop
      vertex 25 19.049999999999997 20
      vertex 25 23.049999999999997 4
      vertex 25 23.049999999999997 20
    endloop
  endfacet
endsolid OpenSCAD_Model
