solid OpenSCAD_Model
  facet normal -1 0 0
    outer loop
      vertex 0 0 0
      vertex 0 0 4
      vertex 0 4 4
    endloop
  endfacet
  facet normal -1 0 0
    outer loop
      vertex 0 9.2 4
      vertex 0 0 0
      vertex 0 4 4
    endloop
  endfacet
  facet normal -1 0 0
    outer loop
      vertex 0 0 0
      vertex 0 9.2 4
      vertex 0 13.2 4
    endloop
  endfacet
  facet normal -1 0 0
    outer loop
      vertex 0 0 0
      vertex 0 33 4
      vertex 0 4 0
    endloop
  endfacet
  facet normal -1 0 0
    outer loop
      vertex 0 0 0
      vertex 0 13.2 4
      vertex 0 33 4
    endloop
  endfacet
  facet normal 0 -1 0
    outer loop
      vertex 0 0 0
      vertex 40.45 0 0
      vertex 0 0 4
    endloop
  endfacet
  facet normal 0 0 1
    outer loop
      vertex 0 9.2 4
      vertex 0 4 4
      vertex 40.45 4 4
    endloop
  endfacet
  facet normal 0 0 -1
    outer loop
      vertex 0 4 0
      vertex 0 29 0
      vertex 40.45 4 0
    endloop
  endfacet
  facet normal -1 0 0
    outer loop
      vertex 0 4 0
      vertex 0 33 4
      vertex 0 29 0
    endloop
  endfacet
  facet normal -1 0 0
    outer loop
      vertex 0 29 0
      vertex 0 33 4
      vertex 0 33 0
    endloop
  endfacet
  facet normal 0 0 1
    outer loop
      vertex 0 33 4
      vertex 0 13.2 4
      vertex 40.45 13.2 4
    endloop
  endfacet
  facet normal 0 1 0
    outer loop
      vertex 0 33 0
      vertex 0 33 4
      vertex 40.45 33 4
    endloop
  endfacet
  facet normal 0 -1 0
    outer loop
      vertex 0 0 4
      vertex 40.45 0 0
      vertex 40.45 0 4
    endloop
  endfacet
  facet normal 0 0 1
    outer loop
      vertex 0 9.2 4
      vertex 40.45 4 4
      vertex 40.45 9.2 4
    endloop
  endfacet
  facet normal 1 0 0
    outer loop
      vertex 40.45 0 0
      vertex 40.45 4 0
      vertex 40.45 0 4
    endloop
  endfacet
  facet normal 1 0 0
    outer loop
      vertex 40.45 4 0
      vertex 40.45 29 0
      vertex 40.45 0 4
    endloop
  endfacet
  facet normal 1 0 0
    outer loop
      vertex 40.45 0 4
      vertex 40.45 33 0
      vertex 40.45 4 4
    endloop
  endfacet
  facet normal 1 0 0
    outer loop
      vertex 40.45 33 0
      vertex 40.45 9.2 4
      vertex 40.45 4 4
    endloop
  endfacet
  facet normal 0 0 -1
    outer loop
      vertex 0 29 0
      vertex 40.45 29 0
      vertex 40.45 4 0
    endloop
  endfacet
  facet normal 0 0 1
    outer loop
      vertex 0 33 4
      vertex 40.45 13.2 4
      vertex 40.45 33 4
    endloop
  endfacet
  facet normal 0 1 0
    outer loop
      vertex 0 33 0
      vertex 40.45 33 4
      vertex 40.45 33 0
    endloop
  endfacet
  facet normal 1 0 0
    outer loop
      vertex 40.45 33 0
      vertex 40.45 13.2 4
      vertex 40.45 9.2 4
    endloop
  endfacet
  facet normal 1 0 0
    outer loop
      vertex 40.45 0 4
      vertex 40.45 29 0
      vertex 40.45 33 0
    endloop
  endfacet
  facet normal 1 0 0
    outer loop
      vertex 40.45 33 4
      vertex 40.45 13.2 4
      vertex 40.45 33 0
    endloop
  endfacet
  facet normal -1 0 0
    outer loop
      vertex 0 0 -8
      vertex 0 4 0
      vertex 0 4 -8
    endloop
  endfacet
  facet normal -1 0 0
    outer loop
      vertex 0 0 -8
      vertex 0 0 0
      vertex 0 4 0
    endloop
  endfacet
  facet normal 0 0 -1
    outer loop
      vertex 0 0 -8
      vertex 0 4 -8
      vertex 40.45 0 -8
    endloop
  endfacet
  facet normal 0 -1 0
    outer loop
      vertex 0 0 -8
      vertex 40.45 0 -8
      vertex 0 0 0
    endloop
  endfacet
  facet normal 0 1 0
    outer loop
      vertex 0 4 -8
      vertex 0 4 0
      vertex 40.45 4 0
    endloop
  endfacet
  facet normal 0 0 -1
    outer loop
      vertex 0 4 -8
      vertex 40.45 4 -8
      vertex 40.45 0 -8
    endloop
  endfacet
  facet normal 0 1 0
    outer loop
      vertex 0 4 -8
      vertex 40.45 4 0
      vertex 40.45 4 -8
    endloop
  endfacet
  facet normal 0 -1 0
    outer loop
      vertex 0 0 0
      vertex 40.45 0 -8
      vertex 40.45 0 0
    endloop
  endfacet
  facet normal 1 0 0
    outer loop
      vertex 40.45 0 -8
      vertex 40.45 4 -8
      vertex 40.45 0 0
    endloop
  endfacet
  facet normal 1 0 0
    outer loop
      vertex 40.45 4 -8
      vertex 40.45 4 0
      vertex 40.45 0 0
    endloop
  endfacet
  facet normal -1 0 0
    outer loop
      vertex 0 29 -8
      vertex 0 33 0
      vertex 0 33 -8
    endloop
  endfacet
  facet normal -1 0 0
    outer loop
      vertex 0 29 -8
      vertex 0 29 0
      vertex 0 33 0
    endloop
  endfacet
  facet normal 0 0 -1
    outer loop
      vertex 0 29 -8
      vertex 0 33 -8
      vertex 40.45 29 -8
    endloop
  endfacet
  facet normal 0 -1 0
    outer loop
      vertex 0 29 -8
      vertex 40.45 29 -8
      vertex 0 29 0
    endloop
  endfacet
  facet normal 0 1 0
    outer loop
      vertex 0 33 -8
      vertex 0 33 0
      vertex 40.45 33 0
    endloop
  endfacet
  facet normal 0 0 -1
    outer loop
      vertex 0 33 -8
      vertex 40.45 33 -8
      vertex 40.45 29 -8
    endloop
  endfacet
  facet normal 0 1 0
    outer loop
      vertex 0 33 -8
      vertex 40.45 33 0
      vertex 40.45 33 -8
    endloop
  endfacet
  facet normal 0 -1 0
    outer loop
      vertex 0 29 0
      vertex 40.45 29 -8
      vertex 40.45 29 0
    endloop
  endfacet
  facet normal 1 0 0
    outer loop
      vertex 40.45 29 -8
      vertex 40.45 33 -8
      vertex 40.45 29 0
    endloop
  endfacet
  facet normal 1 0 0
    outer loop
      vertex 40.45 33 -8
      vertex 40.45 33 0
      vertex 40.45 29 0
    endloop
  endfacet
  facet normal -1 0 0
    outer loop
      vertex 0 0 12
      vertex 0 4 12
      vertex 0 0 4
    endloop
  endfacet
  facet normal -1 0 0
    outer loop
      vertex 0 4 12
      vertex 0 4 4
      vertex 0 0 4
    endloop
  endfacet
  facet normal 0 -1 0
    outer loop
      vertex 0 0 12
      vertex 0 0 4
      vertex 40.45 0 4
    endloop
  endfacet
  facet normal 0 1 0
    outer loop
      vertex 0 4 12
      vertex 40.45 4 12
      vertex 0 4 4
    endloop
  endfacet
  facet normal 0 0 1
    outer loop
      vertex 0 0 12
      vertex 40.45 0 12
      vertex 0 4 12
    endloop
  endfacet
  facet normal 0 -1 0
    outer loop
      vertex 0 0 12
      vertex 40.45 0 4
      vertex 40.45 0 12
    endloop
  endfacet
  facet normal 0 1 0
    outer loop
      vertex 40.45 4 12
      vertex 40.45 4 4
      vertex 0 4 4
    endloop
  endfacet
  facet normal 0 0 1
    outer loop
      vertex 0 4 12
      vertex 40.45 0 12
      vertex 40.45 4 12
    endloop
  endfacet
  facet normal 1 0 0
    outer loop
      vertex 40.45 0 12
      vertex 40.45 0 4
      vertex 40.45 4 4
    endloop
  endfacet
  facet normal 1 0 0
    outer loop
      vertex 40.45 0 12
      vertex 40.45 4 4
      vertex 40.45 4 12
    endloop
  endfacet
  facet normal -1 0 0
    outer loop
      vertex 0 13.2 20
      vertex 0 13.2 4
      vertex 0 9.2 4
    endloop
  endfacet
  facet normal -1 0 0
    outer loop
      vertex 0 9.2 20
      vertex 0 13.2 20
      vertex 0 9.2 4
    endloop
  endfacet
  facet normal 0 -1 0
    outer loop
      vertex 0 9.2 20
      vertex 0 9.2 4
      vertex 40.45 9.2 4
    endloop
  endfacet
  facet normal 0 0 1
    outer loop
      vertex 0 9.2 20
      vertex 40.45 9.2 20
      vertex 0 13.2 20
    endloop
  endfacet
  facet normal 0 1 0
    outer loop
      vertex 0 13.2 20
      vertex 40.45 13.2 20
      vertex 0 13.2 4
    endloop
  endfacet
  facet normal 0 1 0
    outer loop
      vertex 40.45 13.2 20
      vertex 40.45 13.2 4
      vertex 0 13.2 4
    endloop
  endfacet
  facet normal 0 -1 0
    outer loop
      vertex 0 9.2 20
      vertex 40.45 9.2 4
      vertex 40.45 9.2 20
    endloop
  endfacet
  facet normal 0 0 1
    outer loop
      vertex 0 13.2 20
      vertex 40.45 9.2 20
      vertex 40.45 13.2 20
    endloop
  endfacet
  facet normal 1 0 0
    outer loop
      vertex 40.45 9.2 20
      vertex 40.45 9.2 4
      vertex 40.45 13.2 4
    endloop
  endfacet
  facet normal 1 0 0
    outer loop
      vertex 40.45 9.2 20
      vertex 40.45 13.2 4
      vertex 40.45 13.2 20
    endloop
  endfacet
endsolid OpenSCAD_Model
